# AST/ASF file generated using VICON BodyLanguage
# -----------------------------------------------
:version 1.10
:name VICON
:units
  mass 1.0
  length 0.45
  angle deg
:documentation
   .ast/.asf automatically generated from VICON data using
   VICON BodyBuilder and BodyLanguage model FoxedUp or BRILLIANT.MOD
:root
   order TX TY TZ RX RY RZ
   axis XYZ
   position 0 0 0  
   orientation 0 0 0 
:bonedata
  begin
     id 1 
     name lhipjoint
     direction 0.612567 -0.751349 0.245431 
     length 2.42285 
     axis 0 0 0  XYZ
  end
  begin
     id 2 
     name lfemur
     direction 0.34202 -0.939693 0  
     length 7.11304  
     axis 0 0 20  XYZ
    dof rx ry rz
    limits (-160.0 20.0)
           (-70.0 70.0)
           (-60.0 70.0)
  end
  begin
     id 3 
     name ltibia
     direction 0.34202 -0.939693 0   
     length 7.84529   
     axis 0 0 20   XYZ
    dof rx
    limits (-10.0 170.0)
  end
  begin
     id 4 
     name lfoot
     direction 0.0779239 -0.214094 0.9737   
     length 1.97176   
     axis -90 7.62852e-016 20   XYZ
    dof rx rz
    limits (-45.0 90.0)
           (-70.0 20.0)
  end
  begin
     id 5 
     name ltoes
     direction 1.53565e-011 -4.21709e-011 1   
     length 0.993197   
     axis -90 7.62852e-016 20   XYZ
    dof rx
    limits (-90.0 20.0)
  end
  begin
     id 6 
     name rhipjoint
     direction -0.665722 -0.709315 0.231701   
     length 2.56642  
     axis 0 0 0  XYZ 
  end
  begin
     id 7 
     name rfemur
     direction -0.34202 -0.939693 0   
     length 7.32108   
     axis 0 0 -20   XYZ
    dof rx ry rz
    limits (-160.0 20.0)
           (-70.0 70.0)
           (-70.0 60.0)
  end
  begin
     id 8 
     name rtibia
     direction -0.34202 -0.939693 0   
     length 7.81254   
     axis 0 0 -20   XYZ
    dof rx
    limits (-10.0 170.0)
 end
 begin
     id 9 
     name rfoot
     direction -0.0832806 -0.228812 0.969902   
     length 2.08278  
     axis -90 -7.62852e-016 -20   XYZ
    dof rx rz
    limits (-45.0 90.0)
           (-20.0 70.0)
  end
  begin
     id 10 
     name rtoes
     direction -1.53589e-011 -4.22086e-011 1   
     length 1.04609   
     axis -90 -7.62852e-016 -20   XYZ
    dof rx
    limits (-90.0 20.0)
  end
  begin
     id 11 
     name lowerback
     direction -0.00506013 0.988403 -0.151766   
     length 2.01978   
     axis 0 0 0   XYZ
    dof rx ry rz
    limits (-20.0 45.0)
           (-30.0 30.0)
           (-30.0 30.0)
  end
  begin
     id 12 
     name upperback
     direction -0.00836389 0.99968 0.0238859   
     length 2.01276   
     axis 0 0 0   XYZ
    dof rx ry rz
    limits (-20.0 45.0)
           (-30.0 30.0)
           (-30.0 30.0)
  end
  begin
     id 13 
     name thorax
     direction -0.00684136 0.995386 0.0957043   
     length 2.07303   
     axis 0 0 0   XYZ
    dof rx ry rz
    limits (-20.0 45.0)
           (-30.0 30.0)
           (-30.0 30.0)
  end
  begin
     id 14 
     name lowerneck
     direction -0.0161045 0.999661 0.0204485   
     length 1.91243   
     axis 0 0 0   XYZ
    dof rx ry rz
    limits (-20.0 45.0)
           (-30.0 30.0)
           (-30.0 30.0)
  end
  begin
     id 15 
     name upperneck
     direction 0.0553583 0.990946 -0.122319   
     length 1.91574   
     axis 0 0 0   XYZ
    dof rx ry rz
    limits (-20.0 45.0)
           (-30.0 30.0)
           (-30.0 30.0)
  end
  begin
     id 16
     name head
     direction 0.0180273 0.998839 -0.0446756  
     length 1.92693  
     axis 0 0 0   XYZ
    dof rx ry rz
    limits (-20.0 45.0)
           (-30.0 30.0)
           (-30.0 30.0)
  end
  begin
     id 17 
     name lclavicle
     direction 0.945646 0.319323 -0.0615358  
     length 4.0076  
     axis 0 0 0   XYZ
    dof ry rz
    limits (-20.0 10.0)
           (0.0 20.0)
  end
  begin
     id 18 
     name lhumerus
     direction 1 -4.48967e-011 -2.79996e-027   
     length 5.64147   
     axis 180 -30 -90   XYZ
    dof rx ry rz
    limits (-60.0 90.0)
           (-90.0 90.0)
           (-90.0 90.0)
  end
  begin
     id 19
     name lradius
     direction 1 -4.48976e-011 -9.5122e-027   
     length 2.86444   
     axis 180 -30 -90   XYZ
    dof rx
    limits (-10.0 170.0)
  end
  begin
     id 20
     name lwrist
     direction 1 -4.48983e-011 -1.24047e-026   
     length 1.43222   
     axis 9.05591e-015 90 90   XYZ
    dof ry
    limits (-180.0 0.0)
 end
  begin
     id 21 
     name lhand
     direction 1 -4.4892e-011 -2.48094e-026   
     length 0.722123   
     axis 1.58305e-014 90 90   XYZ
    dof rx rz
    limits (-90.0 90.0)
           (-45.0 45.0)
  end
  begin
     id 22 
     name lfingers
     direction 1 -4.48895e-011 -4.96187e-026   
     length 0.582194   
     axis 3.1661e-014 90 90   XYZ
    dof rx
    limits (0.0 90.0)
  end
  begin
     id 23
     name lthumb
     direction 0.707107 -6.34961e-011 0.707107   
     length 0.835918   
     axis -90 45 2.85299e-015   XYZ
    dof rx rz
    limits (-45.0 45.0)
           (-45.0 45.0)
  end
  begin
     id 24 
     name rclavicle
     direction -0.932635 0.324218 -0.15835   
     length 3.65819  
     axis 0 0 0   XYZ 
    dof ry rz
    limits (-10.0 20.0)
           (-20.0 0.0)
  end
  begin
     id 25 
     name rhumerus
     direction -1 -4.48965e-011 -4.02296e-027  
     length 5.44729   
     axis 180 30 90   XYZ
    dof rx ry rz
    limits (-90.0 60.0)
           (-90.0 90.0)
           (-90.0 90.0)
  end
  begin
     id 26 
     name rradius
     direction -1 -4.48957e-011 -8.81087e-027   
     length 3.08821   
     axis 180 30 90   XYZ
    dof rx
    limits (-10.0 170.0)
  end
  begin
     id 27 
     name rwrist
     direction -1 -4.49015e-011 -1.24047e-026   
     length 1.5441   
     axis 9.05591e-015 -90 -90   XYZ
    dof ry
    limits (-180.0 0.0)
  end
  begin
     id 28
     name rhand
     direction -1 -4.4891e-011 -2.48094e-026   
     length 0.821049   
     axis 1.58305e-014 -90 -90   XYZ
    dof rx rz
    limits (-90.0 90.0)
           (-45.0 45.0)
  end
  begin
     id 29
     name rfingers
     direction -1 -4.48985e-011 -4.96187e-026   
     length 0.661951   
     axis 3.1661e-014 -90 -90   XYZ
    dof rx
    limits (0.0 90.0)
  end
  begin
     id 30
     name rthumb
     direction -0.707107 -6.34906e-011 0.707107   
     length 0.950433   
     axis -90 -45 -2.85299e-015   XYZ
    dof rx rz
    limits (-45.0 45.0)
           (-45.0 45.0)
  end
:hierarchy
  begin
    root lhipjoint rhipjoint lowerback
    lhipjoint lfemur
    lfemur ltibia
    ltibia lfoot
    lfoot ltoes
    rhipjoint rfemur
    rfemur rtibia
    rtibia rfoot
    rfoot rtoes
    lowerback upperback
    upperback thorax
    thorax lowerneck lclavicle rclavicle
    lowerneck upperneck
    upperneck head
    lclavicle lhumerus
    lhumerus lradius
    lradius lwrist
    lwrist lhand lthumb
    lhand lfingers
    rclavicle rhumerus
    rhumerus rradius
    rradius rwrist
    rwrist rhand rthumb
    rhand rfingers
  end

#!OML:ASF F:\VICON\USERDATA\INSTALL\rory3\rory3.ASF
:FULLY-SPECIFIED
:DEGREES
135
root 3.18604 17.6702 0.509573 -59.8925 88.5759 -58.6234
lowerback 4.7571 -0.305133 3.62415
upperback -2.22464 -0.202739 -1.0264
thorax -4.99797 -0.2355 -3.08432
lowerneck -4.44372 -5.57841 -5.03204
upperneck 8.48427 -7.86285 9.16626
head 3.81885 -3.61204 3.22201
rclavicle -5.69021e-015 -8.54774e-015
rhumerus -38.424 -19.4082 -78.2327
rradius 19.2364
rwrist 26.3552
rhand -7.1436 16.6033
rfingers 7.12502
rthumb 18.7327 -12.5147
lclavicle -5.69021e-015 -8.54774e-015
lhumerus -37.6376 24.196 71.7414
lradius 13.6476
lwrist 20.2265
lhand -14.7251 5.33305
lfingers 7.12502
lthumb 11.4299 35.0015
rfemur 2.155 0.846291 20.6169
rtibia 13.2787
rfoot -15.5684 -1.1547
rtoes -6.89176
lfemur 3.30856 1.06586 -14.4215
ltibia 9.66488
lfoot -12.1436 0.610235
ltoes -6.47088
136
root 3.18543 17.6694 0.509537 -60.2693 88.543 -59.011
lowerback 4.72791 -0.289629 3.66298
upperback -2.20468 -0.180904 -1.02852
thorax -4.95898 -0.224922 -3.1103
lowerneck -4.48472 -5.58175 -4.98047
upperneck 8.47156 -7.86589 9.12535
head 3.8185 -3.61313 3.19997
rclavicle 1.05604e-015 -2.78299e-015
rhumerus -38.4363 -20.0714 -77.8521
rradius 19.0354
rwrist 27.0749
rhand -7.17803 16.7747
rfingers 7.12502
rthumb 18.6996 -12.3465
lclavicle 1.05604e-015 -2.78299e-015
lhumerus -37.554 24.0059 71.843
lradius 13.7216
lwrist 20.4589
lhand -14.6261 5.42232
lfingers 7.12502
lthumb 11.5253 35.0855
rfemur 2.15927 0.860276 20.6553
rtibia 13.2394
rfoot -15.5473 -1.19345
rtoes -6.82523
lfemur 3.27304 1.07478 -14.3872
ltibia 9.7434
lfoot -12.2433 0.547901
ltoes -5.86915
137
root 3.18428 17.67 0.509666 -60.7104 88.511 -59.4448
lowerback 4.76608 -0.298357 3.6884
upperback -2.22185 -0.188733 -1.01943
thorax -4.99951 -0.230567 -3.11456
lowerneck -4.46002 -5.56994 -4.96896
upperneck 8.47419 -7.84956 9.10391
head 3.81265 -3.6063 3.19324
rclavicle 2.5345e-015 -3.97569e-015
rhumerus -38.4896 -20.6882 -77.458
rradius 18.8465
rwrist 27.7528
rhand -7.03031 16.9306
rfingers 7.12502
rthumb 18.8417 -12.1768
lclavicle 2.5345e-015 -3.97569e-015
lhumerus -37.6323 24.2617 71.615
lradius 13.6822
lwrist 20.2247
lhand -14.4891 5.39495
lfingers 7.12502
lthumb 11.6575 35.0506
rfemur 2.18632 0.879339 20.6958
rtibia 13.1685
rfoot -15.5081 -1.26072
rtoes -6.94625
lfemur 3.2192 1.07987 -14.3497
ltibia 9.86118
lfoot -12.2809 0.537327
ltoes -6.01468
138
root 3.18331 17.6707 0.509654 -63.2072 88.4355 -61.9382
lowerback 4.78522 -0.30955 3.80614
upperback -2.22366 -0.194177 -1.00329
thorax -5.01367 -0.23722 -3.16367
lowerneck -4.44758 -5.58154 -4.98187
upperneck 8.461 -7.86499 9.11728
head 3.80876 -3.61434 3.1989
rclavicle -1.56543e-015 -9.93923e-016
rhumerus -38.4833 -20.7471 -77.4251
rradius 18.8547
rwrist 27.7048
rhand -6.91184 16.9454
rfingers 7.12502
rthumb 18.9556 -12.1509
lclavicle -1.56543e-015 -9.93923e-016
lhumerus -37.6362 24.3906 71.4698
lradius 13.6218
lwrist 20.0462
lhand -14.2701 5.44288
lfingers 7.12502
lthumb 11.8686 35.0865
rfemur 2.20599 0.848566 20.8036
rtibia 13.1204
rfoot -15.4883 -1.24592
rtoes -6.78738
lfemur 3.16347 1.05572 -14.2395
ltibia 9.93777
lfoot -12.2663 0.588716
ltoes -6.72661
139
root 3.18207 17.6718 0.509878 -64.044 88.4096 -62.7684
lowerback 4.80164 -0.314707 3.85224
upperback -2.21378 -0.197209 -0.996711
thorax -5.01328 -0.240009 -3.18254
lowerneck -4.45565 -5.58633 -5.01228
upperneck 8.44704 -7.86898 9.12325
head 3.80761 -3.61733 3.20524
rclavicle 1.49089e-015 -3.97569e-015
rhumerus -38.4655 -20.8234 -77.3655
rradius 18.8482
rwrist 27.6841
rhand -6.81104 17.0256
rfingers 7.12502
rthumb 19.0525 -12.0612
lclavicle 1.49089e-015 -3.97569e-015
lhumerus -37.587 24.3814 71.4487
lradius 13.5931
lwrist 19.9445
lhand -14.0582 5.48617
lfingers 7.12502
lthumb 12.073 35.1179
rfemur 2.21849 0.916563 20.8518
rtibia 13.0976
rfoot -15.4933 -1.22552
rtoes -6.19353
lfemur 3.11487 1.0454 -14.1932
ltibia 9.9886
lfoot -12.2319 0.641976
ltoes -7.22364
140
root 3.18116 17.6701 0.509415 -63.6194 88.4402 -62.3332
lowerback 4.81184 -0.300084 3.84038
upperback -2.19434 -0.179432 -1.01663
thorax -4.99723 -0.230559 -3.19822
lowerneck -4.5034 -5.59202 -4.98495
upperneck 8.45026 -7.87475 9.0863
head 3.81448 -3.61987 3.18784
rclavicle 4.96962e-016 -1.19271e-015
rhumerus -38.4712 -20.9809 -77.2683
rradius 18.8797
rwrist 27.6621
rhand -6.64463 17.0438
rfingers 7.12502
rthumb 19.2126 -12.0272
lclavicle 4.96962e-016 -1.19271e-015
lhumerus -37.43 24.1089 71.6381
lradius 13.6348
lwrist 20.1752
lhand -14.029 5.63871
lfingers 7.12502
lthumb 12.1012 35.2688
rfemur 2.23998 0.90452 20.8116
rtibia 13.0699
rfoot -15.4767 -1.22068
rtoes -6.483
lfemur 3.09101 1.0418 -14.2292
ltibia 10.0434
lfoot -12.257 0.64527
ltoes -7.09657
141
root 3.17946 17.6683 0.509123 -63.121 88.5065 -61.8045
lowerback 4.85298 -0.293265 3.77982
upperback -2.17569 -0.174366 -1.03874
thorax -5.00032 -0.226284 -3.18762
lowerneck -4.52424 -5.59738 -4.98604
upperneck 8.42626 -7.87994 9.0847
head 3.8111 -3.62271 3.1868
rclavicle -1.98785e-016 2.78299e-015
rhumerus -38.4878 -21.1455 -77.1476
rradius 18.9375
rwrist 27.4948
rhand -6.32012 17.0489
rfingers 7.12502
rthumb 19.5246 -11.9908
lclavicle -1.98785e-016 2.78299e-015
lhumerus -37.2823 23.8412 71.806
lradius 13.6276
lwrist 20.4342
lhand -14.0089 5.67679
lfingers 7.12502
lthumb 12.1205 35.3057
rfemur 2.28955 0.887277 20.7401
rtibia 13.0546
rfoot -15.4903 -1.31084
rtoes -7.57568
lfemur 3.10348 1.05862 -14.2959
ltibia 10.0832
lfoot -12.2945 0.562621
ltoes -6.93055
